<svg width="361" height="64" viewBox="0 0 361 64" fill="none" xmlns="http://www.w3.org/2000/svg">
<path fill-rule="evenodd" clip-rule="evenodd" d="M18.6206 1.61143C5.46557 8.64443 -4.62743 33.6714 2.19357 42.3424C5.90357 47.0594 14.2796 45.4424 21.9266 38.5344L25.9526 34.8964L26.5966 41.6864C27.4826 51.0244 27.5036 51.1214 28.5396 50.7804C29.0446 50.6134 29.4946 45.4524 29.5396 39.3104C29.6126 29.2824 29.8566 27.8254 31.9316 25.0184L34.2436 21.8924L28.9316 22.4844C19.5116 23.5354 17.1206 24.0494 17.1206 25.0224C17.1206 25.5474 19.3826 25.9774 22.1466 25.9774H27.1716L25.7106 28.8024C22.8356 34.3624 12.7106 41.9774 8.19357 41.9774C4.74458 41.9774 2.76857 37.6874 3.53957 31.8754C5.58357 16.4654 16.6676 3.08343 27.4536 2.99943C31.8256 2.96543 30.1286 0.517427 25.5426 0.242427C23.3856 0.112427 20.2706 0.728426 18.6206 1.61143ZM93.6026 1.00543C93.2536 1.57143 93.2726 4.88143 93.6446 8.36043L94.3226 14.6874L89.9716 15.2644C82.3126 16.2814 78.1206 23.8734 78.1206 36.7294C78.1206 40.0634 78.7006 43.3884 79.4646 44.4334C81.4576 47.1594 85.7936 45.6634 90.4246 40.6524L94.2836 36.4774L94.0086 42.4774C93.7926 47.1674 94.0476 48.4774 95.1766 48.4774C95.9706 48.4774 96.5756 47.9154 96.5206 47.2274C96.4656 46.5404 96.3536 35.6274 96.2706 22.9774C96.1326 1.84043 95.6326 -2.27857 93.6026 1.00543ZM43.9486 14.4884C42.4316 15.3234 40.1126 18.3384 38.5856 21.4604C36.2646 26.2044 35.9476 27.9184 36.2876 33.9204C36.6056 39.5574 37.1356 41.3644 39.0746 43.4284C41.9336 46.4714 43.5956 46.5954 47.7336 44.0714C52.7286 41.0254 55.4196 34.2744 54.9496 25.9654C54.3506 15.3494 50.2166 11.0374 43.9486 14.4884ZM64.9486 14.4884C63.4316 15.3234 61.1126 18.3384 59.5856 21.4604C57.2646 26.2044 56.9476 27.9184 57.2876 33.9204C57.6056 39.5574 58.1356 41.3644 60.0746 43.4284C62.9336 46.4714 64.5956 46.5954 68.7336 44.0714C73.7286 41.0254 76.4196 34.2744 75.9496 25.9654C75.3506 15.3494 71.2166 11.0374 64.9486 14.4884ZM159.542 14.8734C154.109 17.3414 151.121 21.2864 151.121 25.9894C151.121 31.1414 152.772 32.1674 160.497 31.8204C164.077 31.6604 167.357 31.8804 167.787 32.3094C169.153 33.6764 165.701 38.3674 161.591 40.7274C159.083 42.1674 156.332 42.9104 154.121 42.7454C152.196 42.6024 150.734 42.8204 150.871 43.2314C151.008 43.6414 151.121 44.4864 151.121 45.1094C151.121 47.0764 159.012 45.3364 163.817 42.3094C169.84 38.5144 171.917 35.0194 170.282 31.4314C169.09 28.8144 168.909 28.7674 162.695 29.4324C156.889 30.0544 156.197 29.9234 154.812 27.9464C151.609 23.3734 156.882 16.7774 163.741 16.7774C167.454 16.7774 169.167 15.2544 166.999 13.8814C165.062 12.6544 164.166 12.7734 159.542 14.8734ZM230.117 15.6344C223.112 21.5284 220.698 35.0774 225.405 42.0794C228.172 46.1954 230.557 46.6674 234.939 43.9684C239.912 40.9044 242.428 34.4084 241.945 25.8774C241.304 14.5184 236.444 10.3104 230.117 15.6344ZM244.782 13.7274C244.53 14.1404 244.391 20.3474 244.473 27.5224C244.594 38.1544 244.949 41.0684 246.394 43.2724C248.82 46.9734 251.804 46.6924 256.258 42.3434L259.98 38.7094L260.682 42.5934C261.573 47.5234 261.871 48.0104 263.596 47.3484C264.73 46.9134 264.783 46.2844 263.866 44.1424C263.203 42.5954 262.702 35.6364 262.671 27.5604C262.633 17.9984 262.256 13.5224 261.466 13.2594C260.679 12.9964 260.102 15.9764 259.64 22.6764C258.825 34.5194 258.653 35.1924 255.463 38.9824C252.644 42.3324 249.694 42.8704 248.63 40.2274C248.243 39.2644 247.68 32.7404 247.38 25.7274C246.892 14.3474 246.24 11.3354 244.782 13.7274ZM317.595 14.0184C317.241 14.5914 317.275 22.0164 317.67 30.5184C318.195 41.7914 318.726 45.9774 319.633 45.9774C320.498 45.9774 321.004 43.2984 321.298 37.1634C321.896 24.6414 325.854 18.8614 334.621 17.7054C339.233 17.0964 338.517 14.4494 333.781 14.5994C329.405 14.7384 325.633 17.1744 322.371 21.9674L320.121 25.2734V19.1254C320.121 13.4374 319.158 11.4904 317.595 14.0184ZM134.355 17.2364C127.92 23.8744 124.827 39.6834 129.121 43.9774C130.221 45.0774 131.51 45.9774 131.986 45.9774C133.946 45.9774 138.383 41.4484 141.15 36.6244L144.102 31.4774L144.125 36.4774C144.155 42.9004 145.001 45.9774 146.738 45.9774C148.4 45.9774 148.502 42.3054 147.015 35.9774C146.433 33.5024 145.657 27.6524 145.289 22.9774L144.621 14.4774L141.112 14.1814C138.237 13.9394 137.015 14.4914 134.355 17.2364ZM218.121 14.6684C218.121 17.8664 213.65 39.8814 213.125 39.2694C212.751 38.8334 210.527 33.7524 208.183 27.9774C203.417 16.2384 203.115 15.7454 201.357 16.8314C200.43 17.4044 201.683 21.1864 206.232 31.5404L212.355 45.4774L211.215 51.7164C210.588 55.1474 209.805 59.3094 209.473 60.9664C208.997 63.3454 209.219 63.9774 210.527 63.9774C212.693 63.9774 212.457 64.8574 217.098 39.5174C221.623 14.8144 221.706 13.9774 219.621 13.9774C218.796 13.9774 218.121 14.2884 218.121 14.6684ZM301.076 17.0254C294.799 23.7454 291.848 39.7044 296.097 43.9534C299.05 46.9064 301.944 45.3234 306.871 38.0604L311.121 31.7964V37.3054C311.121 43.7304 311.796 45.9774 313.728 45.9774C315.491 45.9774 315.475 44.3314 313.621 34.6394C312.796 30.3284 312.121 24.6274 312.121 21.9714C312.121 15.0614 311.483 13.9774 307.415 13.9774C304.813 13.9774 303.198 14.7534 301.076 17.0254ZM341.194 16.6124C340.054 18.0614 339.115 20.4244 339.107 21.8624C339.086 26.0184 338.003 28.9774 336.504 28.9774C334.429 28.9774 334.839 31.0914 337.025 31.6624C338.289 31.9934 339.31 33.6704 340.06 36.6494C342.465 46.2024 349.66 48.8664 355.714 42.4474C360.159 37.7344 362.31 29.9774 359.173 29.9774C358.717 29.9774 358.035 31.6204 357.659 33.6274C356.735 38.5494 352.019 43.2134 348.388 42.7944C345.286 42.4374 343.564 39.6554 342.594 33.4354C341.985 29.5344 342.045 29.4414 346.677 27.0204C352.322 24.0694 356.121 21.1884 356.121 19.8574C356.121 19.3204 354.93 17.7784 353.475 16.4294C349.726 12.9554 344.003 13.0404 341.194 16.6124ZM50.7366 19.2014C53.1066 23.7854 52.9486 31.5944 50.3856 36.5304C48.2106 40.7184 44.2596 43.3514 41.6516 42.3514C36.8016 40.4904 38.4866 23.6114 44.0806 18.0174C46.9536 15.1444 48.8086 15.4744 50.7366 19.2014ZM71.7366 19.2014C74.1066 23.7854 73.9486 31.5944 71.3856 36.5304C69.2106 40.7184 65.2596 43.3514 62.6516 42.3514C57.8016 40.4904 59.4866 23.6114 65.0806 18.0174C67.9536 15.1444 69.8086 15.4744 71.7366 19.2014ZM237.776 19.2274C241.54 26.3944 238.977 38.4494 233.036 41.5214C229.557 43.3204 229.608 43.3214 227.692 41.4064C224.314 38.0274 226.275 23.2614 230.743 18.4404C233.815 15.1254 235.735 15.3404 237.776 19.2274ZM142.112 23.2274C142.104 28.2824 141.548 30.4424 139.206 34.5264C133.969 43.6574 130.121 44.5014 130.121 36.5194C130.121 28.0684 135.895 16.9774 140.295 16.9774C141.869 16.9774 142.12 17.8394 142.112 23.2274ZM308.923 22.7374C309.158 26.8134 308.64 29.1464 306.594 33.2284C302.199 41.9964 299.295 44.0394 297.087 39.9134C295.087 36.1774 299.136 23.1044 303.709 18.5314C306.745 15.4964 308.592 16.9864 308.923 22.7374ZM351.215 18.0274C352.294 18.6054 352.935 19.4694 352.64 19.9474C352.145 20.7484 343.347 25.9774 342.495 25.9774C341.688 25.9774 342.179 20.7384 343.156 18.9114C344.3 16.7744 348.096 16.3584 351.215 18.0274ZM92.9186 24.1824C93.2346 30.2084 91.0646 36.1094 86.8336 40.7274C83.0396 44.8684 81.1206 43.1994 81.1206 35.7614C81.1206 29.9124 83.0806 24.2314 86.2816 20.8054C90.5376 16.2484 92.5566 17.2754 92.9186 24.1824Z" fill="#FFFFF0"/>
</svg>
